<svg xmlns="http://www.w3.org/2000/svg" xmlns:xlink="http://www.w3.org/1999/xlink" width="500" zoomAndPan="magnify" viewBox="0 0 375 374.999991" height="500" preserveAspectRatio="xMidYMid meet" version="1.0"><defs><g/><clipPath id="86d0fcad5a"><path d="M 149.34375 90 L 225.84375 90 L 225.84375 220.832031 L 149.34375 220.832031 Z M 149.34375 90 " clip-rule="nonzero"/></clipPath><clipPath id="c50c454488"><path d="M 158 70.832031 L 211 70.832031 L 211 118 L 158 118 Z M 158 70.832031 " clip-rule="nonzero"/></clipPath></defs><g clip-path="url(#86d0fcad5a)"><path fill="#000000" d="M 217.261719 208.535156 C 214.972656 211.003906 212.34375 213.128906 209.492188 214.785156 C 206.578125 216.503906 206.421875 218.878906 206.828125 220.566406 C 206.828125 220.628906 206.859375 220.660156 206.859375 220.722656 L 155.515625 220.816406 C 155.515625 220.753906 155.484375 220.660156 155.484375 220.597656 C 155.421875 220.160156 155.359375 219.785156 155.328125 219.410156 C 155.046875 215.253906 155.265625 211.316406 156.046875 207.410156 C 156.863281 203.253906 158.210938 199.347656 159.648438 195.191406 L 160.152344 193.722656 C 160.308594 193.253906 160.496094 192.816406 160.652344 192.441406 C 161.058594 192.628906 161.5 192.878906 162.03125 193.222656 C 162.34375 193.410156 162.65625 193.628906 162.972656 193.816406 C 169.738281 197.691406 176.378906 201.410156 183.269531 204.722656 L 183.519531 204.847656 C 185.339844 205.722656 187.1875 206.597656 189.097656 207.410156 C 191.445312 208.378906 194.015625 209.003906 196.960938 209.316406 C 197.742188 209.410156 198.527344 209.441406 199.277344 209.441406 C 202.128906 209.441406 204.949219 208.878906 207.644531 207.816406 C 211.089844 206.441406 213.59375 204.285156 215.316406 201.316406 C 216.195312 199.753906 216.257812 197.910156 215.410156 196.378906 C 214.566406 194.847656 212.9375 193.847656 211.089844 193.753906 C 210.777344 193.753906 210.460938 193.722656 210.148438 193.722656 C 209.773438 193.722656 209.429688 193.722656 209.117188 193.691406 C 209.117188 193.628906 209.117188 193.566406 209.117188 193.503906 C 209.117188 192.066406 208.550781 190.691406 207.550781 189.691406 C 206.515625 188.660156 205.136719 188.128906 203.632812 188.128906 L 202.789062 188.128906 C 201.753906 188.128906 200.78125 188.160156 199.8125 188.128906 C 196.398438 187.972656 193.453125 188.503906 190.851562 189.753906 C 190.632812 189.847656 190.257812 190.035156 189.566406 189.472656 C 185.527344 186.410156 181.640625 183.378906 178.039062 180.378906 C 176.535156 179.128906 175 177.847656 173.527344 176.628906 C 172.054688 175.378906 170.488281 174.097656 168.984375 172.847656 L 168.921875 172.816406 C 168.734375 172.660156 168.578125 172.535156 168.421875 172.378906 C 168.421875 172.316406 168.453125 172.253906 168.453125 172.222656 C 168.484375 172.035156 168.546875 171.816406 168.609375 171.566406 C 169.015625 169.722656 169.550781 167.847656 170.050781 166.003906 L 170.300781 165.128906 C 171.085938 162.316406 171.835938 159.472656 172.589844 156.691406 L 173.214844 154.347656 C 173.371094 153.753906 173.527344 153.160156 173.714844 152.566406 C 174.15625 150.972656 174.625 149.316406 174.96875 147.628906 C 175.21875 146.472656 174.46875 145.316406 173.308594 145.097656 C 172.148438 144.847656 170.992188 145.597656 170.769531 146.753906 C 170.425781 148.316406 170.019531 149.847656 169.582031 151.441406 C 169.425781 152.035156 169.234375 152.660156 169.078125 153.285156 L 168.453125 155.628906 C 167.734375 158.378906 166.949219 161.222656 166.199219 164.003906 L 165.945312 164.878906 C 165.414062 166.753906 164.882812 168.691406 164.441406 170.660156 C 164.378906 170.878906 164.347656 171.066406 164.316406 171.253906 C 163.722656 173.785156 164.316406 174.566406 166.230469 176.160156 L 166.292969 176.191406 C 167.796875 177.441406 169.332031 178.722656 170.800781 179.972656 C 172.273438 181.222656 173.808594 182.503906 175.34375 183.753906 C 179.011719 186.753906 182.925781 189.847656 187 192.941406 C 188.816406 194.316406 190.851562 194.566406 192.730469 193.660156 C 194.734375 192.722656 196.929688 192.347656 199.6875 192.441406 C 200.78125 192.472656 201.847656 192.472656 202.914062 192.472656 L 203.726562 192.472656 C 204.070312 192.472656 204.355469 192.566406 204.574219 192.785156 C 204.761719 192.972656 204.886719 193.253906 204.886719 193.535156 C 204.886719 193.753906 204.886719 193.972656 204.917969 194.160156 C 203.726562 194.628906 202.597656 194.628906 201.410156 194.128906 C 200.3125 193.691406 199.058594 194.222656 198.589844 195.316406 C 198.152344 196.410156 198.683594 197.660156 199.78125 198.128906 C 202.285156 199.128906 204.824219 199.035156 207.296875 197.816406 C 207.296875 197.816406 207.328125 197.816406 207.328125 197.785156 C 208.363281 198.097656 209.335938 198.097656 210.179688 198.128906 C 210.429688 198.128906 210.714844 198.128906 210.964844 198.160156 C 211.308594 198.191406 211.589844 198.316406 211.714844 198.566406 C 211.839844 198.785156 211.808594 199.035156 211.652344 199.285156 C 210.460938 201.410156 208.644531 202.910156 206.109375 203.941406 C 203.289062 205.066406 200.46875 205.472656 197.460938 205.160156 C 194.925781 204.910156 192.761719 204.378906 190.820312 203.566406 C 189.003906 202.816406 187.1875 201.941406 185.464844 201.097656 L 185.214844 200.972656 C 178.445312 197.722656 171.867188 194.035156 165.195312 190.191406 C 164.914062 190.035156 164.664062 189.878906 164.378906 189.691406 C 163.410156 189.066406 162.21875 188.347656 160.746094 188.066406 C 159.839844 187.035156 158.773438 186.410156 157.894531 185.847656 L 157.800781 185.785156 C 156.234375 184.847656 154.792969 183.972656 153.417969 182.941406 C 150.472656 180.753906 149.1875 178.222656 149.34375 174.910156 C 149.46875 172.378906 149.8125 169.597656 150.472656 166.160156 C 150.753906 164.597656 151.066406 163.035156 151.347656 161.472656 C 151.820312 158.847656 152.320312 156.160156 152.851562 153.535156 C 153.195312 151.910156 153.480469 150.253906 153.792969 148.628906 C 154.355469 145.503906 154.953125 142.253906 155.765625 139.160156 C 156.328125 137.003906 157.082031 135.003906 158.113281 133.035156 C 158.773438 131.785156 159.871094 130.847656 161.183594 129.722656 C 161.5 129.441406 161.84375 129.160156 162.15625 128.878906 C 167.511719 124.128906 172.304688 119.753906 176.847656 115.472656 C 180.105469 112.378906 181.890625 108.816406 182.332031 104.566406 L 182.363281 104.285156 C 182.550781 102.378906 182.988281 97.941406 184.429688 97.097656 C 184.929688 96.816406 185.777344 97.066406 186.371094 97.316406 C 186.496094 97.378906 186.621094 97.410156 186.714844 97.472656 C 187.125 97.660156 187.5625 97.847656 188.0625 98.003906 C 191.289062 99.003906 194.390625 98.722656 196.710938 98.347656 C 202.566406 97.410156 207.421875 95.003906 211.183594 91.191406 C 211.371094 91.003906 211.527344 90.847656 211.683594 90.691406 C 211.714844 91.160156 211.714844 91.597656 211.652344 91.972656 C 211.558594 92.691406 211.277344 93.503906 210.964844 94.378906 C 210.808594 94.816406 210.648438 95.285156 210.523438 95.722656 C 210.429688 96.003906 210.335938 96.316406 210.210938 96.628906 C 209.773438 97.785156 209.242188 99.253906 209.585938 100.972656 C 209.679688 101.503906 209.804688 102.003906 209.898438 102.535156 C 210.117188 103.566406 210.335938 104.628906 210.523438 105.660156 C 210.996094 108.222656 210.996094 108.222656 209.398438 108.910156 C 208.082031 109.472656 207.046875 110.410156 206.421875 111.597656 C 205.574219 113.222656 204.417969 114.847656 202.691406 116.785156 C 201.0625 118.597656 199.402344 119.191406 197.335938 118.722656 C 197.054688 118.660156 196.113281 118.222656 195.519531 117.910156 C 193.011719 116.722656 191.507812 116.066406 190.195312 116.566406 C 189.566406 116.785156 189.066406 117.222656 188.816406 117.816406 C 188.691406 118.035156 188.597656 118.285156 188.472656 118.535156 C 187.03125 121.535156 184.867188 126.066406 187.1875 129.941406 C 188.410156 132.003906 190.101562 133.535156 191.570312 134.785156 C 193.203125 136.160156 194.894531 137.441406 196.585938 138.628906 C 198.464844 140.003906 200.25 141.316406 201.910156 142.785156 C 203.570312 144.285156 204.792969 145.597656 205.386719 147.316406 C 206.109375 149.378906 205.984375 151.316406 204.949219 153.410156 C 204.574219 154.191406 204.289062 154.941406 204.070312 155.691406 C 203.820312 156.628906 203.820312 157.941406 205.230469 159.066406 C 206.234375 159.847656 207.296875 160.316406 208.269531 160.722656 C 208.644531 160.878906 209.019531 161.035156 209.367188 161.191406 C 212.65625 162.816406 215.316406 164.691406 217.480469 167.003906 C 222.148438 171.910156 224.777344 177.316406 225.59375 183.566406 C 226.722656 193.097656 224.027344 201.222656 217.261719 208.535156 Z M 217.261719 208.535156 " fill-opacity="1" fill-rule="nonzero"/></g><g clip-path="url(#c50c454488)"><path fill="#000000" d="M 210.933594 85.910156 C 209.929688 86.472656 208.988281 87.191406 208.019531 88.160156 C 204.886719 91.347656 200.9375 93.285156 195.925781 94.066406 C 193.167969 94.503906 191.101562 94.441406 189.253906 93.878906 C 189.003906 93.785156 188.722656 93.660156 188.410156 93.535156 C 188.25 93.472656 188.125 93.410156 187.96875 93.347656 C 185.214844 92.128906 183.269531 92.691406 182.113281 93.347656 C 178.757812 95.316406 178.257812 100.410156 177.914062 103.816406 L 177.882812 104.097656 C 177.570312 107.316406 176.253906 109.941406 173.714844 112.316406 C 172.085938 113.878906 170.394531 115.441406 168.671875 117.035156 C 167.417969 116.410156 166.136719 116.160156 164.976562 115.972656 C 164.253906 115.847656 163.535156 115.691406 162.941406 115.503906 C 161.4375 115.003906 159.996094 114.253906 158.710938 113.316406 C 160.058594 111.910156 161.4375 110.441406 162.65625 108.816406 C 165.914062 104.503906 167.230469 99.535156 168.078125 95.253906 C 168.765625 91.691406 169.582031 87.660156 171.398438 84.160156 C 173.464844 80.097656 176.253906 77.003906 179.855469 74.628906 C 182.925781 72.628906 186.246094 71.441406 190.007812 71.003906 C 193.265625 70.628906 196.207031 70.878906 198.964844 71.785156 C 202.597656 72.941406 205.605469 74.910156 207.832031 77.628906 C 208.769531 78.753906 210.023438 81.097656 210.933594 85.910156 Z M 210.933594 85.910156 " fill-opacity="1" fill-rule="nonzero"/></g><g fill="#000000" fill-opacity="1"><g transform="translate(99.135929, 257.542454)"><g><path d="M 8.640625 -13.15625 C 7.390625 -13.15625 6.421875 -12.679688 5.734375 -11.734375 C 5.046875 -10.796875 4.703125 -9.488281 4.703125 -7.8125 C 4.703125 -4.3125 6.015625 -2.5625 8.640625 -2.5625 C 9.742188 -2.5625 11.082031 -2.835938 12.65625 -3.390625 L 12.65625 -0.59375 C 11.363281 -0.0507812 9.925781 0.21875 8.34375 0.21875 C 6.050781 0.21875 4.300781 -0.472656 3.09375 -1.859375 C 1.882812 -3.242188 1.28125 -5.234375 1.28125 -7.828125 C 1.28125 -9.460938 1.578125 -10.894531 2.171875 -12.125 C 2.765625 -13.351562 3.617188 -14.296875 4.734375 -14.953125 C 5.847656 -15.609375 7.148438 -15.9375 8.640625 -15.9375 C 10.171875 -15.9375 11.707031 -15.566406 13.25 -14.828125 L 12.171875 -12.125 C 11.585938 -12.394531 10.992188 -12.632812 10.390625 -12.84375 C 9.796875 -13.050781 9.210938 -13.15625 8.640625 -13.15625 Z M 8.640625 -13.15625 "/></g></g></g><g fill="#000000" fill-opacity="1"><g transform="translate(113.152, 257.542454)"><g><path d="M 10.234375 0 L 9.78125 -1.53125 L 9.609375 -1.53125 C 9.265625 -0.976562 8.769531 -0.546875 8.125 -0.234375 C 7.476562 0.0664062 6.742188 0.21875 5.921875 0.21875 C 4.503906 0.21875 3.4375 -0.15625 2.71875 -0.90625 C 2.007812 -1.664062 1.65625 -2.753906 1.65625 -4.171875 L 1.65625 -12.015625 L 4.9375 -12.015625 L 4.9375 -5 C 4.9375 -4.132812 5.085938 -3.484375 5.390625 -3.046875 C 5.703125 -2.609375 6.191406 -2.390625 6.859375 -2.390625 C 7.773438 -2.390625 8.4375 -2.695312 8.84375 -3.3125 C 9.257812 -3.925781 9.46875 -4.941406 9.46875 -6.359375 L 9.46875 -12.015625 L 12.734375 -12.015625 L 12.734375 0 Z M 10.234375 0 "/></g></g></g><g fill="#000000" fill-opacity="1"><g transform="translate(127.608416, 257.542454)"><g><path d="M 6.78125 -2.390625 C 7.351562 -2.390625 8.039062 -2.515625 8.84375 -2.765625 L 8.84375 -0.328125 C 8.019531 0.0351562 7.015625 0.21875 5.828125 0.21875 C 4.523438 0.21875 3.570312 -0.109375 2.96875 -0.765625 C 2.375 -1.429688 2.078125 -2.429688 2.078125 -3.765625 L 2.078125 -9.546875 L 0.5 -9.546875 L 0.5 -10.9375 L 2.3125 -12.03125 L 3.25 -14.5625 L 5.34375 -14.5625 L 5.34375 -12.015625 L 8.71875 -12.015625 L 8.71875 -9.546875 L 5.34375 -9.546875 L 5.34375 -3.765625 C 5.34375 -3.296875 5.472656 -2.945312 5.734375 -2.71875 C 6.003906 -2.5 6.351562 -2.390625 6.78125 -2.390625 Z M 6.78125 -2.390625 "/></g></g></g><g fill="#000000" fill-opacity="1"><g transform="translate(137.15653, 257.542454)"><g><path d="M 1.578125 -15.109375 C 1.578125 -16.179688 2.171875 -16.71875 3.359375 -16.71875 C 4.546875 -16.71875 5.140625 -16.179688 5.140625 -15.109375 C 5.140625 -14.609375 4.988281 -14.210938 4.6875 -13.921875 C 4.394531 -13.640625 3.953125 -13.5 3.359375 -13.5 C 2.171875 -13.5 1.578125 -14.035156 1.578125 -15.109375 Z M 5 0 L 1.71875 0 L 1.71875 -12.015625 L 5 -12.015625 Z M 5 0 "/></g></g></g><g fill="#000000" fill-opacity="1"><g transform="translate(143.86921, 257.542454)"><g/></g></g><g fill="#000000" fill-opacity="1"><g transform="translate(149.583039, 257.542454)"><g><path d="M 8.625 0 L 4.84375 -12.328125 L 4.75 -12.328125 C 4.882812 -9.816406 4.953125 -8.144531 4.953125 -7.3125 L 4.953125 0 L 1.984375 0 L 1.984375 -15.703125 L 6.515625 -15.703125 L 10.234375 -3.703125 L 10.296875 -3.703125 L 14.234375 -15.703125 L 18.765625 -15.703125 L 18.765625 0 L 15.65625 0 L 15.65625 -7.4375 C 15.65625 -7.78125 15.660156 -8.179688 15.671875 -8.640625 C 15.679688 -9.097656 15.734375 -10.316406 15.828125 -12.296875 L 15.734375 -12.296875 L 11.671875 0 Z M 8.625 0 "/></g></g></g><g fill="#000000" fill-opacity="1"><g transform="translate(170.322524, 257.542454)"><g><path d="M 6.6875 -9.90625 C 6 -9.90625 5.457031 -9.679688 5.0625 -9.234375 C 4.664062 -8.796875 4.441406 -8.175781 4.390625 -7.375 L 8.984375 -7.375 C 8.960938 -8.175781 8.75 -8.796875 8.34375 -9.234375 C 7.9375 -9.679688 7.382812 -9.90625 6.6875 -9.90625 Z M 7.15625 0.21875 C 5.21875 0.21875 3.703125 -0.3125 2.609375 -1.375 C 1.523438 -2.445312 0.984375 -3.960938 0.984375 -5.921875 C 0.984375 -7.929688 1.484375 -9.484375 2.484375 -10.578125 C 3.492188 -11.679688 4.890625 -12.234375 6.671875 -12.234375 C 8.367188 -12.234375 9.6875 -11.75 10.625 -10.78125 C 11.570312 -9.8125 12.046875 -8.476562 12.046875 -6.78125 L 12.046875 -5.1875 L 4.3125 -5.1875 C 4.34375 -4.257812 4.613281 -3.53125 5.125 -3 C 5.644531 -2.476562 6.375 -2.21875 7.3125 -2.21875 C 8.03125 -2.21875 8.710938 -2.289062 9.359375 -2.4375 C 10.003906 -2.59375 10.675781 -2.835938 11.375 -3.171875 L 11.375 -0.640625 C 10.800781 -0.347656 10.1875 -0.132812 9.53125 0 C 8.882812 0.144531 8.09375 0.21875 7.15625 0.21875 Z M 7.15625 0.21875 "/></g></g></g><g fill="#000000" fill-opacity="1"><g transform="translate(183.318263, 257.542454)"><g><path d="M 5 0 L 1.71875 0 L 1.71875 -16.71875 L 5 -16.71875 Z M 5 0 "/></g></g></g><g fill="#000000" fill-opacity="1"><g transform="translate(190.030943, 257.542454)"><g><path d="M 9.34375 0 L 8.71875 -1.640625 L 8.625 -1.640625 C 8.070312 -0.941406 7.503906 -0.457031 6.921875 -0.1875 C 6.335938 0.0820312 5.578125 0.21875 4.640625 0.21875 C 3.484375 0.21875 2.570312 -0.109375 1.90625 -0.765625 C 1.25 -1.429688 0.921875 -2.375 0.921875 -3.59375 C 0.921875 -4.863281 1.363281 -5.800781 2.25 -6.40625 C 3.144531 -7.007812 4.492188 -7.34375 6.296875 -7.40625 L 8.375 -7.484375 L 8.375 -8 C 8.375 -9.21875 7.753906 -9.828125 6.515625 -9.828125 C 5.554688 -9.828125 4.425781 -9.535156 3.125 -8.953125 L 2.046875 -11.171875 C 3.421875 -11.890625 4.953125 -12.25 6.640625 -12.25 C 8.253906 -12.25 9.488281 -11.898438 10.34375 -11.203125 C 11.207031 -10.503906 11.640625 -9.4375 11.640625 -8 L 11.640625 0 Z M 8.375 -5.5625 L 7.109375 -5.515625 C 6.160156 -5.492188 5.453125 -5.320312 4.984375 -5 C 4.515625 -4.6875 4.28125 -4.207031 4.28125 -3.5625 C 4.28125 -2.644531 4.8125 -2.1875 5.875 -2.1875 C 6.632812 -2.1875 7.238281 -2.398438 7.6875 -2.828125 C 8.144531 -3.265625 8.375 -3.847656 8.375 -4.578125 Z M 8.375 -5.5625 "/></g></g></g><g fill="#000000" fill-opacity="1"><g transform="translate(203.316675, 257.542454)"><g><path d="M 12.8125 0 L 9.53125 0 L 9.53125 -7.015625 C 9.53125 -8.742188 8.882812 -9.609375 7.59375 -9.609375 C 6.675781 -9.609375 6.015625 -9.296875 5.609375 -8.671875 C 5.203125 -8.054688 5 -7.050781 5 -5.65625 L 5 0 L 1.71875 0 L 1.71875 -16.71875 L 5 -16.71875 L 5 -13.3125 C 5 -13.039062 4.972656 -12.414062 4.921875 -11.4375 L 4.84375 -10.46875 L 5.015625 -10.46875 C 5.742188 -11.644531 6.90625 -12.234375 8.5 -12.234375 C 9.90625 -12.234375 10.972656 -11.851562 11.703125 -11.09375 C 12.441406 -10.332031 12.8125 -9.242188 12.8125 -7.828125 Z M 12.8125 0 "/></g></g></g><g fill="#000000" fill-opacity="1"><g transform="translate(217.773091, 257.542454)"><g><path d="M 1.578125 -15.109375 C 1.578125 -16.179688 2.171875 -16.71875 3.359375 -16.71875 C 4.546875 -16.71875 5.140625 -16.179688 5.140625 -15.109375 C 5.140625 -14.609375 4.988281 -14.210938 4.6875 -13.921875 C 4.394531 -13.640625 3.953125 -13.5 3.359375 -13.5 C 2.171875 -13.5 1.578125 -14.035156 1.578125 -15.109375 Z M 5 0 L 1.71875 0 L 1.71875 -12.015625 L 5 -12.015625 Z M 5 0 "/></g></g></g><g fill="#000000" fill-opacity="1"><g transform="translate(224.485771, 257.542454)"><g><path d="M 8.421875 -12.234375 C 8.867188 -12.234375 9.238281 -12.203125 9.53125 -12.140625 L 9.28125 -9.0625 C 9.019531 -9.132812 8.695312 -9.171875 8.3125 -9.171875 C 7.269531 -9.171875 6.457031 -8.898438 5.875 -8.359375 C 5.289062 -7.828125 5 -7.078125 5 -6.109375 L 5 0 L 1.71875 0 L 1.71875 -12.015625 L 4.203125 -12.015625 L 4.6875 -9.984375 L 4.84375 -9.984375 C 5.21875 -10.660156 5.722656 -11.203125 6.359375 -11.609375 C 6.992188 -12.023438 7.679688 -12.234375 8.421875 -12.234375 Z M 8.421875 -12.234375 "/></g></g></g><g fill="#000000" fill-opacity="1"><g transform="translate(234.474231, 257.542454)"><g><path d="M 4.859375 -6.53125 L 6.296875 -8.359375 L 9.65625 -12.015625 L 13.359375 -12.015625 L 8.578125 -6.796875 L 13.640625 0 L 9.859375 0 L 6.40625 -4.859375 L 5 -3.734375 L 5 0 L 1.71875 0 L 1.71875 -16.71875 L 5 -16.71875 L 5 -9.265625 L 4.828125 -6.53125 Z M 4.859375 -6.53125 "/></g></g></g><g fill="#000000" fill-opacity="1"><g transform="translate(248.114386, 257.542454)"><g><path d="M 9.34375 0 L 8.71875 -1.640625 L 8.625 -1.640625 C 8.070312 -0.941406 7.503906 -0.457031 6.921875 -0.1875 C 6.335938 0.0820312 5.578125 0.21875 4.640625 0.21875 C 3.484375 0.21875 2.570312 -0.109375 1.90625 -0.765625 C 1.25 -1.429688 0.921875 -2.375 0.921875 -3.59375 C 0.921875 -4.863281 1.363281 -5.800781 2.25 -6.40625 C 3.144531 -7.007812 4.492188 -7.34375 6.296875 -7.40625 L 8.375 -7.484375 L 8.375 -8 C 8.375 -9.21875 7.753906 -9.828125 6.515625 -9.828125 C 5.554688 -9.828125 4.425781 -9.535156 3.125 -8.953125 L 2.046875 -11.171875 C 3.421875 -11.890625 4.953125 -12.25 6.640625 -12.25 C 8.253906 -12.25 9.488281 -11.898438 10.34375 -11.203125 C 11.207031 -10.503906 11.640625 -9.4375 11.640625 -8 L 11.640625 0 Z M 8.375 -5.5625 L 7.109375 -5.515625 C 6.160156 -5.492188 5.453125 -5.320312 4.984375 -5 C 4.515625 -4.6875 4.28125 -4.207031 4.28125 -3.5625 C 4.28125 -2.644531 4.8125 -2.1875 5.875 -2.1875 C 6.632812 -2.1875 7.238281 -2.398438 7.6875 -2.828125 C 8.144531 -3.265625 8.375 -3.847656 8.375 -4.578125 Z M 8.375 -5.5625 "/></g></g></g><g fill="#000000" fill-opacity="1"><g transform="translate(261.400117, 257.542454)"><g><path d="M 12.8125 0 L 9.53125 0 L 9.53125 -7.015625 C 9.53125 -7.878906 9.375 -8.523438 9.0625 -8.953125 C 8.757812 -9.390625 8.269531 -9.609375 7.59375 -9.609375 C 6.675781 -9.609375 6.015625 -9.300781 5.609375 -8.6875 C 5.203125 -8.082031 5 -7.070312 5 -5.65625 L 5 0 L 1.71875 0 L 1.71875 -12.015625 L 4.21875 -12.015625 L 4.65625 -10.46875 L 4.84375 -10.46875 C 5.207031 -11.050781 5.707031 -11.488281 6.34375 -11.78125 C 6.988281 -12.082031 7.722656 -12.234375 8.546875 -12.234375 C 9.941406 -12.234375 11 -11.851562 11.71875 -11.09375 C 12.445312 -10.34375 12.8125 -9.253906 12.8125 -7.828125 Z M 12.8125 0 "/></g></g></g></svg>