<svg xmlns="http://www.w3.org/2000/svg" xmlns:xlink="http://www.w3.org/1999/xlink" width="500" zoomAndPan="magnify" viewBox="0 0 375 374.999991" height="500" preserveAspectRatio="xMidYMid meet" version="1.0"><defs><g/><clipPath id="2de2f6b7ae"><path d="M 112.5 116 L 262.5 116 L 262.5 189 L 112.5 189 Z M 112.5 116 " clip-rule="nonzero"/></clipPath><clipPath id="0ed89877e5"><path d="M 131 205 L 149 205 L 149 222.21875 L 131 222.21875 Z M 131 205 " clip-rule="nonzero"/></clipPath><clipPath id="02272acb44"><path d="M 222 205 L 239 205 L 239 222.21875 L 222 222.21875 Z M 222 205 " clip-rule="nonzero"/></clipPath></defs><g clip-path="url(#2de2f6b7ae)"><path fill="#000000" d="M 260.714844 188.34375 L 245.21875 188.34375 C 244.71875 188.34375 244.222656 188.140625 243.898438 187.757812 L 239.507812 182.777344 L 123.542969 182.777344 C 117.449219 182.777344 112.5 177.859375 112.5 171.792969 L 112.5 122.703125 C 112.5 119.21875 115.339844 116.375 118.855469 116.375 C 122.167969 116.375 125.300781 117.664062 127.644531 120.007812 C 129.988281 122.351562 131.304688 125.457031 131.304688 128.765625 L 131.304688 156.09375 C 131.304688 157.0625 130.515625 157.851562 129.546875 157.851562 C 128.582031 157.851562 127.789062 157.0625 127.789062 156.09375 L 127.789062 128.765625 C 127.789062 126.394531 126.851562 124.195312 125.183594 122.496094 C 123.484375 120.828125 121.257812 119.890625 118.855469 119.890625 C 117.273438 119.890625 116.015625 121.148438 116.015625 122.703125 L 116.015625 171.765625 C 116.015625 175.867188 119.382812 179.234375 123.542969 179.234375 L 240.296875 179.234375 C 240.796875 179.234375 241.292969 179.4375 241.617188 179.820312 L 246.007812 184.800781 L 258.957031 184.800781 L 258.957031 180.375 C 258.957031 172.554688 252.539062 166.199219 244.632812 166.199219 L 138.011719 166.199219 C 137.046875 166.199219 136.253906 165.410156 136.253906 164.441406 C 136.253906 163.476562 137.046875 162.683594 138.011719 162.683594 L 244.660156 162.683594 C 254.503906 162.683594 262.5 170.621094 262.5 180.375 L 262.5 186.558594 C 262.472656 187.554688 261.679688 188.34375 260.714844 188.34375 Z M 260.714844 188.34375 " fill-opacity="1" fill-rule="nonzero"/></g><path fill="#000000" d="M 157.636719 166.230469 L 137.164062 166.230469 C 132.007812 166.230469 127.820312 162.039062 127.820312 156.886719 L 127.820312 155.304688 C 127.820312 150.148438 132.007812 145.960938 137.164062 145.960938 L 157.636719 145.960938 C 162.792969 145.960938 166.980469 150.148438 166.980469 155.304688 L 166.980469 156.886719 C 166.980469 162.011719 162.792969 166.230469 157.636719 166.230469 Z M 137.164062 149.472656 C 133.941406 149.472656 131.335938 152.082031 131.335938 155.304688 L 131.335938 156.886719 C 131.335938 160.105469 133.941406 162.714844 137.164062 162.714844 L 157.636719 162.714844 C 160.859375 162.714844 163.464844 160.105469 163.464844 156.886719 L 163.464844 155.304688 C 163.464844 152.082031 160.859375 149.472656 157.636719 149.472656 Z M 137.164062 149.472656 " fill-opacity="1" fill-rule="nonzero"/><path fill="#000000" d="M 140.09375 209.402344 C 139.125 209.402344 138.335938 208.613281 138.335938 207.648438 L 138.335938 180.992188 C 138.335938 180.023438 139.125 179.234375 140.09375 179.234375 C 141.058594 179.234375 141.851562 180.023438 141.851562 180.992188 L 141.851562 207.648438 C 141.851562 208.613281 141.058594 209.402344 140.09375 209.402344 Z M 140.09375 209.402344 " fill-opacity="1" fill-rule="nonzero"/><g clip-path="url(#0ed89877e5)"><path fill="#000000" d="M 140.09375 222.144531 C 135.582031 222.144531 131.921875 218.515625 131.921875 214.03125 C 131.921875 209.550781 135.582031 205.917969 140.09375 205.917969 C 144.601562 205.917969 148.265625 209.550781 148.265625 214.03125 C 148.265625 218.515625 144.601562 222.144531 140.09375 222.144531 Z M 140.09375 209.402344 C 137.515625 209.402344 135.433594 211.484375 135.433594 214.003906 C 135.433594 216.523438 137.515625 218.601562 140.09375 218.601562 C 142.667969 218.601562 144.75 216.523438 144.75 214.003906 C 144.75 211.484375 142.640625 209.402344 140.09375 209.402344 Z M 140.09375 209.402344 " fill-opacity="1" fill-rule="nonzero"/></g><path fill="#000000" d="M 230.425781 209.402344 C 229.460938 209.402344 228.667969 208.613281 228.667969 207.648438 L 228.667969 180.992188 C 228.667969 180.023438 229.460938 179.234375 230.425781 179.234375 C 231.394531 179.234375 232.183594 180.023438 232.183594 180.992188 L 232.183594 207.648438 C 232.183594 208.613281 231.394531 209.402344 230.425781 209.402344 Z M 230.425781 209.402344 " fill-opacity="1" fill-rule="nonzero"/><g clip-path="url(#02272acb44)"><path fill="#000000" d="M 230.425781 222.144531 C 225.914062 222.144531 222.253906 218.515625 222.253906 214.03125 C 222.253906 209.550781 225.914062 205.917969 230.425781 205.917969 C 234.9375 205.917969 238.597656 209.550781 238.597656 214.03125 C 238.597656 218.515625 234.9375 222.144531 230.425781 222.144531 Z M 230.425781 209.402344 C 227.847656 209.402344 225.769531 211.484375 225.769531 214.003906 C 225.769531 216.523438 227.847656 218.601562 230.425781 218.601562 C 233.003906 218.601562 235.082031 216.523438 235.082031 214.003906 C 235.082031 211.484375 233.003906 209.402344 230.425781 209.402344 Z M 230.425781 209.402344 " fill-opacity="1" fill-rule="nonzero"/></g><path fill="#000000" d="M 205.617188 125.835938 C 204.648438 125.835938 203.859375 125.046875 203.859375 124.078125 L 203.859375 105.800781 C 203.859375 104.835938 204.648438 104.042969 205.617188 104.042969 C 206.582031 104.042969 207.375 104.835938 207.375 105.800781 L 207.375 124.078125 C 207.375 125.074219 206.582031 125.835938 205.617188 125.835938 Z M 205.617188 125.835938 " fill-opacity="1" fill-rule="nonzero"/><path fill="#000000" d="M 205.617188 138.578125 C 201.105469 138.578125 197.445312 134.945312 197.445312 130.464844 C 197.445312 125.984375 201.105469 122.351562 205.617188 122.351562 C 210.128906 122.351562 213.789062 125.984375 213.789062 130.464844 C 213.789062 134.945312 210.128906 138.578125 205.617188 138.578125 Z M 205.617188 125.835938 C 203.039062 125.835938 200.960938 127.917969 200.960938 130.433594 C 200.960938 132.953125 203.039062 135.035156 205.617188 135.035156 C 208.195312 135.035156 210.273438 132.953125 210.273438 130.433594 C 210.273438 127.917969 208.164062 125.835938 205.617188 125.835938 Z M 205.617188 125.835938 " fill-opacity="1" fill-rule="nonzero"/><path fill="#000000" d="M 230.425781 196.078125 L 140.09375 196.078125 C 139.125 196.078125 138.335938 195.285156 138.335938 194.320312 C 138.335938 193.351562 139.125 192.5625 140.09375 192.5625 L 230.457031 192.5625 C 231.421875 192.5625 232.214844 193.351562 232.214844 194.320312 C 232.214844 195.285156 231.394531 196.078125 230.425781 196.078125 Z M 230.425781 196.078125 " fill-opacity="1" fill-rule="nonzero"/><path fill="#000000" d="M 225.035156 166.230469 C 224.070312 166.230469 223.277344 165.4375 223.277344 164.472656 L 223.277344 107.558594 L 196.535156 107.558594 C 195.570312 107.558594 194.777344 106.769531 194.777344 105.800781 C 194.777344 104.835938 195.570312 104.042969 196.535156 104.042969 L 225.035156 104.042969 C 226.003906 104.042969 226.792969 104.835938 226.792969 105.800781 L 226.792969 164.441406 C 226.792969 165.4375 226.03125 166.230469 225.035156 166.230469 Z M 225.035156 166.230469 " fill-opacity="1" fill-rule="nonzero"/><path fill="#000000" d="M 171.113281 128.796875 L 159.308594 128.796875 C 158.339844 128.796875 157.550781 128.003906 157.550781 127.039062 L 157.550781 122.4375 L 152.746094 122.4375 C 151.78125 122.4375 150.988281 121.648438 150.988281 120.679688 L 150.988281 109.230469 C 150.988281 108.261719 151.78125 107.472656 152.746094 107.472656 L 157.550781 107.472656 L 157.550781 102.871094 C 157.550781 101.90625 158.339844 101.113281 159.308594 101.113281 L 171.113281 101.113281 C 172.078125 101.113281 172.867188 101.90625 172.867188 102.871094 L 172.867188 107.472656 L 177.671875 107.472656 C 178.640625 107.472656 179.429688 108.261719 179.429688 109.230469 L 179.429688 120.679688 C 179.429688 121.648438 178.640625 122.4375 177.671875 122.4375 L 172.867188 122.4375 L 172.867188 127.039062 C 172.867188 128.003906 172.078125 128.796875 171.113281 128.796875 Z M 161.066406 125.28125 L 169.355469 125.28125 L 169.355469 120.679688 C 169.355469 119.714844 170.144531 118.925781 171.113281 118.925781 L 175.914062 118.925781 L 175.914062 110.984375 L 171.113281 110.984375 C 170.144531 110.984375 169.355469 110.195312 169.355469 109.230469 L 169.355469 104.628906 L 161.066406 104.628906 L 161.066406 109.230469 C 161.066406 110.195312 160.273438 110.984375 159.308594 110.984375 L 154.503906 110.984375 L 154.503906 118.925781 L 159.308594 118.925781 C 160.273438 118.925781 161.066406 119.714844 161.066406 120.679688 Z M 161.066406 125.28125 " fill-opacity="1" fill-rule="nonzero"/><path fill="#000000" d="M 165.222656 138.84375 C 151.957031 138.84375 141.148438 128.121094 141.148438 114.941406 C 141.148438 101.757812 151.957031 91.039062 165.222656 91.039062 C 178.492188 91.039062 189.300781 101.757812 189.300781 114.941406 C 189.300781 128.121094 178.492188 138.84375 165.222656 138.84375 Z M 165.222656 94.554688 C 153.886719 94.554688 144.660156 103.691406 144.660156 114.941406 C 144.660156 126.1875 153.886719 135.328125 165.222656 135.328125 C 176.558594 135.328125 185.785156 126.1875 185.785156 114.941406 C 185.785156 103.691406 176.558594 94.554688 165.222656 94.554688 Z M 165.222656 94.554688 " fill-opacity="1" fill-rule="nonzero"/><g fill="#000000" fill-opacity="1"><g transform="translate(134.624996, 252.984533)"><g><path d="M 8.640625 -13.15625 C 7.390625 -13.15625 6.421875 -12.679688 5.734375 -11.734375 C 5.046875 -10.796875 4.703125 -9.488281 4.703125 -7.8125 C 4.703125 -4.3125 6.015625 -2.5625 8.640625 -2.5625 C 9.742188 -2.5625 11.082031 -2.835938 12.65625 -3.390625 L 12.65625 -0.59375 C 11.363281 -0.0507812 9.925781 0.21875 8.34375 0.21875 C 6.050781 0.21875 4.300781 -0.472656 3.09375 -1.859375 C 1.882812 -3.242188 1.28125 -5.234375 1.28125 -7.828125 C 1.28125 -9.460938 1.578125 -10.894531 2.171875 -12.125 C 2.765625 -13.351562 3.617188 -14.296875 4.734375 -14.953125 C 5.847656 -15.609375 7.148438 -15.9375 8.640625 -15.9375 C 10.171875 -15.9375 11.707031 -15.566406 13.25 -14.828125 L 12.171875 -12.125 C 11.585938 -12.394531 10.992188 -12.632812 10.390625 -12.84375 C 9.796875 -13.050781 9.210938 -13.15625 8.640625 -13.15625 Z M 8.640625 -13.15625 "/></g></g></g><g fill="#000000" fill-opacity="1"><g transform="translate(148.641066, 252.984533)"><g><path d="M 10.234375 0 L 9.78125 -1.53125 L 9.609375 -1.53125 C 9.265625 -0.976562 8.769531 -0.546875 8.125 -0.234375 C 7.476562 0.0664062 6.742188 0.21875 5.921875 0.21875 C 4.503906 0.21875 3.4375 -0.15625 2.71875 -0.90625 C 2.007812 -1.664062 1.65625 -2.753906 1.65625 -4.171875 L 1.65625 -12.015625 L 4.9375 -12.015625 L 4.9375 -5 C 4.9375 -4.132812 5.085938 -3.484375 5.390625 -3.046875 C 5.703125 -2.609375 6.191406 -2.390625 6.859375 -2.390625 C 7.773438 -2.390625 8.4375 -2.695312 8.84375 -3.3125 C 9.257812 -3.925781 9.46875 -4.941406 9.46875 -6.359375 L 9.46875 -12.015625 L 12.734375 -12.015625 L 12.734375 0 Z M 10.234375 0 "/></g></g></g><g fill="#000000" fill-opacity="1"><g transform="translate(163.097482, 252.984533)"><g><path d="M 6.78125 -2.390625 C 7.351562 -2.390625 8.039062 -2.515625 8.84375 -2.765625 L 8.84375 -0.328125 C 8.019531 0.0351562 7.015625 0.21875 5.828125 0.21875 C 4.523438 0.21875 3.570312 -0.109375 2.96875 -0.765625 C 2.375 -1.429688 2.078125 -2.429688 2.078125 -3.765625 L 2.078125 -9.546875 L 0.5 -9.546875 L 0.5 -10.9375 L 2.3125 -12.03125 L 3.25 -14.5625 L 5.34375 -14.5625 L 5.34375 -12.015625 L 8.71875 -12.015625 L 8.71875 -9.546875 L 5.34375 -9.546875 L 5.34375 -3.765625 C 5.34375 -3.296875 5.472656 -2.945312 5.734375 -2.71875 C 6.003906 -2.5 6.351562 -2.390625 6.78125 -2.390625 Z M 6.78125 -2.390625 "/></g></g></g><g fill="#000000" fill-opacity="1"><g transform="translate(172.645596, 252.984533)"><g><path d="M 1.578125 -15.109375 C 1.578125 -16.179688 2.171875 -16.71875 3.359375 -16.71875 C 4.546875 -16.71875 5.140625 -16.179688 5.140625 -15.109375 C 5.140625 -14.609375 4.988281 -14.210938 4.6875 -13.921875 C 4.394531 -13.640625 3.953125 -13.5 3.359375 -13.5 C 2.171875 -13.5 1.578125 -14.035156 1.578125 -15.109375 Z M 5 0 L 1.71875 0 L 1.71875 -12.015625 L 5 -12.015625 Z M 5 0 "/></g></g></g><g fill="#000000" fill-opacity="1"><g transform="translate(179.358277, 252.984533)"><g/></g></g><g fill="#000000" fill-opacity="1"><g transform="translate(185.072105, 252.984533)"><g><path d="M 11.25 -4.359375 C 11.25 -2.941406 10.738281 -1.820312 9.71875 -1 C 8.695312 -0.1875 7.273438 0.21875 5.453125 0.21875 C 3.773438 0.21875 2.296875 -0.0976562 1.015625 -0.734375 L 1.015625 -3.828125 C 2.066406 -3.347656 2.957031 -3.007812 3.6875 -2.8125 C 4.425781 -2.625 5.101562 -2.53125 5.71875 -2.53125 C 6.445312 -2.53125 7.003906 -2.671875 7.390625 -2.953125 C 7.785156 -3.234375 7.984375 -3.648438 7.984375 -4.203125 C 7.984375 -4.503906 7.894531 -4.773438 7.71875 -5.015625 C 7.550781 -5.253906 7.300781 -5.484375 6.96875 -5.703125 C 6.632812 -5.929688 5.957031 -6.289062 4.9375 -6.78125 C 3.96875 -7.226562 3.242188 -7.660156 2.765625 -8.078125 C 2.285156 -8.492188 1.898438 -8.976562 1.609375 -9.53125 C 1.328125 -10.082031 1.1875 -10.726562 1.1875 -11.46875 C 1.1875 -12.851562 1.65625 -13.941406 2.59375 -14.734375 C 3.539062 -15.535156 4.847656 -15.9375 6.515625 -15.9375 C 7.328125 -15.9375 8.101562 -15.835938 8.84375 -15.640625 C 9.582031 -15.441406 10.359375 -15.171875 11.171875 -14.828125 L 10.09375 -12.234375 C 9.257812 -12.578125 8.566406 -12.816406 8.015625 -12.953125 C 7.472656 -13.085938 6.9375 -13.15625 6.40625 -13.15625 C 5.769531 -13.15625 5.285156 -13.007812 4.953125 -12.71875 C 4.617188 -12.425781 4.453125 -12.039062 4.453125 -11.5625 C 4.453125 -11.269531 4.519531 -11.015625 4.65625 -10.796875 C 4.789062 -10.578125 5.003906 -10.363281 5.296875 -10.15625 C 5.597656 -9.957031 6.300781 -9.59375 7.40625 -9.0625 C 8.875 -8.363281 9.878906 -7.660156 10.421875 -6.953125 C 10.972656 -6.242188 11.25 -5.378906 11.25 -4.359375 Z M 11.25 -4.359375 "/></g></g></g><g fill="#000000" fill-opacity="1"><g transform="translate(197.187141, 252.984533)"><g><path d="M 9.34375 0 L 8.71875 -1.640625 L 8.625 -1.640625 C 8.070312 -0.941406 7.503906 -0.457031 6.921875 -0.1875 C 6.335938 0.0820312 5.578125 0.21875 4.640625 0.21875 C 3.484375 0.21875 2.570312 -0.109375 1.90625 -0.765625 C 1.25 -1.429688 0.921875 -2.375 0.921875 -3.59375 C 0.921875 -4.863281 1.363281 -5.800781 2.25 -6.40625 C 3.144531 -7.007812 4.492188 -7.34375 6.296875 -7.40625 L 8.375 -7.484375 L 8.375 -8 C 8.375 -9.21875 7.753906 -9.828125 6.515625 -9.828125 C 5.554688 -9.828125 4.425781 -9.535156 3.125 -8.953125 L 2.046875 -11.171875 C 3.421875 -11.890625 4.953125 -12.25 6.640625 -12.25 C 8.253906 -12.25 9.488281 -11.898438 10.34375 -11.203125 C 11.207031 -10.503906 11.640625 -9.4375 11.640625 -8 L 11.640625 0 Z M 8.375 -5.5625 L 7.109375 -5.515625 C 6.160156 -5.492188 5.453125 -5.320312 4.984375 -5 C 4.515625 -4.6875 4.28125 -4.207031 4.28125 -3.5625 C 4.28125 -2.644531 4.8125 -2.1875 5.875 -2.1875 C 6.632812 -2.1875 7.238281 -2.398438 7.6875 -2.828125 C 8.144531 -3.265625 8.375 -3.847656 8.375 -4.578125 Z M 8.375 -5.5625 "/></g></g></g><g fill="#000000" fill-opacity="1"><g transform="translate(210.472872, 252.984533)"><g><path d="M 4.859375 -6.53125 L 6.296875 -8.359375 L 9.65625 -12.015625 L 13.359375 -12.015625 L 8.578125 -6.796875 L 13.640625 0 L 9.859375 0 L 6.40625 -4.859375 L 5 -3.734375 L 5 0 L 1.71875 0 L 1.71875 -16.71875 L 5 -16.71875 L 5 -9.265625 L 4.828125 -6.53125 Z M 4.859375 -6.53125 "/></g></g></g><g fill="#000000" fill-opacity="1"><g transform="translate(224.113027, 252.984533)"><g><path d="M 1.578125 -15.109375 C 1.578125 -16.179688 2.171875 -16.71875 3.359375 -16.71875 C 4.546875 -16.71875 5.140625 -16.179688 5.140625 -15.109375 C 5.140625 -14.609375 4.988281 -14.210938 4.6875 -13.921875 C 4.394531 -13.640625 3.953125 -13.5 3.359375 -13.5 C 2.171875 -13.5 1.578125 -14.035156 1.578125 -15.109375 Z M 5 0 L 1.71875 0 L 1.71875 -12.015625 L 5 -12.015625 Z M 5 0 "/></g></g></g><g fill="#000000" fill-opacity="1"><g transform="translate(230.825707, 252.984533)"><g><path d="M 6.78125 -2.390625 C 7.351562 -2.390625 8.039062 -2.515625 8.84375 -2.765625 L 8.84375 -0.328125 C 8.019531 0.0351562 7.015625 0.21875 5.828125 0.21875 C 4.523438 0.21875 3.570312 -0.109375 2.96875 -0.765625 C 2.375 -1.429688 2.078125 -2.429688 2.078125 -3.765625 L 2.078125 -9.546875 L 0.5 -9.546875 L 0.5 -10.9375 L 2.3125 -12.03125 L 3.25 -14.5625 L 5.34375 -14.5625 L 5.34375 -12.015625 L 8.71875 -12.015625 L 8.71875 -9.546875 L 5.34375 -9.546875 L 5.34375 -3.765625 C 5.34375 -3.296875 5.472656 -2.945312 5.734375 -2.71875 C 6.003906 -2.5 6.351562 -2.390625 6.78125 -2.390625 Z M 6.78125 -2.390625 "/></g></g></g></svg>