<svg xmlns="http://www.w3.org/2000/svg" xmlns:xlink="http://www.w3.org/1999/xlink" width="500" zoomAndPan="magnify" viewBox="0 0 375 374.999991" height="500" preserveAspectRatio="xMidYMid meet" version="1.0"><defs><g/><clipPath id="18cb67569d"><path d="M 112.988281 59.878906 L 262.238281 59.878906 L 262.238281 209.878906 L 112.988281 209.878906 Z M 112.988281 59.878906 " clip-rule="nonzero"/></clipPath></defs><path fill="#000000" d="M 136.785156 146.710938 L 148.652344 146.710938 C 150.296875 146.710938 151.632812 145.378906 151.632812 143.734375 L 151.632812 131.882812 C 151.632812 130.242188 150.296875 128.910156 148.652344 128.910156 L 136.785156 128.910156 C 135.136719 128.910156 133.804688 130.242188 133.804688 131.882812 L 133.804688 143.734375 C 133.804688 145.378906 135.136719 146.710938 136.785156 146.710938 Z M 136.785156 146.710938 " fill-opacity="1" fill-rule="nonzero"/><path fill="#000000" d="M 136.785156 171.210938 L 148.652344 171.210938 C 150.296875 171.210938 151.632812 169.875 151.632812 168.234375 L 151.632812 156.382812 C 151.632812 154.738281 150.296875 153.40625 148.652344 153.40625 L 136.785156 153.40625 C 135.136719 153.40625 133.804688 154.738281 133.804688 156.382812 L 133.804688 168.234375 C 133.804688 169.875 135.136719 171.210938 136.785156 171.210938 Z M 136.785156 171.210938 " fill-opacity="1" fill-rule="nonzero"/><path fill="#000000" d="M 136.785156 195.707031 L 148.652344 195.707031 C 150.296875 195.707031 151.632812 194.375 151.632812 192.734375 L 151.632812 180.882812 C 151.632812 179.238281 150.296875 177.90625 148.652344 177.90625 L 136.785156 177.90625 C 135.136719 177.90625 133.804688 179.238281 133.804688 180.882812 L 133.804688 192.734375 C 133.804688 194.375 135.136719 195.707031 136.785156 195.707031 Z M 136.785156 195.707031 " fill-opacity="1" fill-rule="nonzero"/><path fill="#000000" d="M 166.714844 146.710938 L 178.582031 146.710938 C 180.226562 146.710938 181.5625 145.378906 181.5625 143.734375 L 181.5625 131.882812 C 181.5625 130.242188 180.226562 128.910156 178.582031 128.910156 L 166.714844 128.910156 C 165.066406 128.910156 163.734375 130.242188 163.734375 131.882812 L 163.734375 143.734375 C 163.734375 145.378906 165.066406 146.710938 166.714844 146.710938 Z M 166.714844 146.710938 " fill-opacity="1" fill-rule="nonzero"/><path fill="#000000" d="M 166.714844 171.210938 L 178.582031 171.210938 C 180.226562 171.210938 181.5625 169.875 181.5625 168.234375 L 181.5625 156.382812 C 181.5625 154.738281 180.226562 153.40625 178.582031 153.40625 L 166.714844 153.40625 C 165.066406 153.40625 163.734375 154.738281 163.734375 156.382812 L 163.734375 168.234375 C 163.734375 169.875 165.066406 171.210938 166.714844 171.210938 Z M 166.714844 171.210938 " fill-opacity="1" fill-rule="nonzero"/><path fill="#000000" d="M 166.714844 195.707031 L 178.582031 195.707031 C 180.226562 195.707031 181.5625 194.375 181.5625 192.734375 L 181.5625 180.882812 C 181.5625 179.238281 180.226562 177.90625 178.582031 177.90625 L 166.714844 177.90625 C 165.066406 177.90625 163.734375 179.238281 163.734375 180.882812 L 163.734375 192.734375 C 163.734375 194.375 165.066406 195.707031 166.714844 195.707031 Z M 166.714844 195.707031 " fill-opacity="1" fill-rule="nonzero"/><path fill="#000000" d="M 196.644531 146.710938 L 208.511719 146.710938 C 210.160156 146.710938 211.492188 145.378906 211.492188 143.734375 L 211.492188 131.882812 C 211.492188 130.242188 210.160156 128.910156 208.511719 128.910156 L 196.644531 128.910156 C 195 128.910156 193.664062 130.242188 193.664062 131.882812 L 193.664062 143.734375 C 193.664062 145.378906 194.996094 146.710938 196.644531 146.710938 Z M 196.644531 146.710938 " fill-opacity="1" fill-rule="nonzero"/><path fill="#000000" d="M 208.511719 177.90625 L 196.644531 177.90625 C 195 177.90625 193.664062 179.238281 193.664062 180.882812 L 193.664062 192.734375 C 193.664062 194.375 195 195.707031 196.644531 195.707031 L 208.511719 195.707031 C 210.160156 195.707031 211.492188 194.375 211.492188 192.734375 L 211.492188 180.882812 C 211.492188 179.238281 210.160156 177.90625 208.511719 177.90625 Z M 208.511719 177.90625 " fill-opacity="1" fill-rule="nonzero"/><path fill="#000000" d="M 226.574219 146.710938 L 238.441406 146.710938 C 240.089844 146.710938 241.421875 145.378906 241.421875 143.734375 L 241.421875 131.882812 C 241.421875 130.242188 240.089844 128.910156 238.441406 128.910156 L 226.574219 128.910156 C 224.929688 128.910156 223.59375 130.242188 223.59375 131.882812 L 223.59375 143.734375 C 223.59375 145.378906 224.929688 146.710938 226.574219 146.710938 Z M 226.574219 146.710938 " fill-opacity="1" fill-rule="nonzero"/><path fill="#000000" d="M 226.574219 171.210938 L 238.441406 171.210938 C 240.089844 171.210938 241.421875 169.875 241.421875 168.234375 L 241.421875 156.382812 C 241.421875 154.738281 240.089844 153.40625 238.441406 153.40625 L 226.574219 153.40625 C 224.929688 153.40625 223.59375 154.738281 223.59375 156.382812 L 223.59375 168.234375 C 223.59375 169.875 224.929688 171.210938 226.574219 171.210938 Z M 226.574219 171.210938 " fill-opacity="1" fill-rule="nonzero"/><g clip-path="url(#18cb67569d)"><path fill="#000000" d="M 227.230469 59.890625 C 224.433594 59.890625 222.167969 62.152344 222.167969 64.945312 L 222.167969 75.101562 L 153.320312 75.101562 L 153.320312 64.945312 C 153.320312 62.152344 151.054688 59.890625 148.257812 59.890625 C 145.460938 59.890625 143.195312 62.152344 143.195312 64.945312 L 143.195312 75.101562 L 127.242188 75.101562 C 119.382812 75.101562 112.988281 81.484375 112.988281 89.332031 L 112.988281 195.636719 C 112.988281 203.480469 119.382812 209.867188 127.242188 209.867188 L 247.984375 209.867188 C 255.84375 209.867188 262.238281 203.480469 262.238281 195.636719 L 262.238281 89.332031 C 262.238281 81.484375 255.84375 75.101562 247.984375 75.101562 L 232.292969 75.101562 L 232.292969 64.945312 C 232.292969 62.152344 230.027344 59.890625 227.230469 59.890625 Z M 143.195312 82.351562 L 143.195312 88.625 C 143.195312 91.417969 145.460938 93.679688 148.257812 93.679688 C 151.054688 93.679688 153.320312 91.417969 153.320312 88.625 L 153.320312 82.351562 C 155.152344 83.828125 156.328125 86.089844 156.328125 88.625 C 156.328125 93.074219 152.714844 96.683594 148.257812 96.683594 C 143.800781 96.683594 140.1875 93.074219 140.1875 88.625 C 140.1875 86.089844 141.359375 83.828125 143.195312 82.351562 Z M 255.214844 195.636719 C 255.214844 199.617188 251.972656 202.855469 247.984375 202.855469 L 127.242188 202.855469 C 123.253906 202.855469 120.011719 199.617188 120.011719 195.636719 L 120.011719 121.761719 L 255.214844 121.761719 Z M 235.300781 88.625 C 235.300781 93.074219 231.6875 96.683594 227.230469 96.683594 C 222.773438 96.683594 219.160156 93.074219 219.160156 88.625 C 219.160156 86.089844 220.332031 83.828125 222.167969 82.351562 L 222.167969 88.625 C 222.167969 91.414062 224.433594 93.679688 227.230469 93.679688 C 230.023438 93.679688 232.289062 91.414062 232.289062 88.625 L 232.289062 82.351562 C 234.125 83.828125 235.300781 86.089844 235.300781 88.625 Z M 235.300781 88.625 " fill-opacity="1" fill-rule="nonzero"/></g><path fill="#000000" d="M 201.640625 172.78125 L 215.78125 158.660156 C 217.152344 157.289062 217.152344 155.070312 215.78125 153.699219 C 214.410156 152.332031 212.1875 152.332031 210.816406 153.699219 L 201.640625 162.863281 L 197.953125 159.183594 C 196.582031 157.816406 194.359375 157.8125 192.988281 159.183594 C 191.617188 160.554688 191.617188 162.773438 192.988281 164.140625 Z M 201.640625 172.78125 " fill-opacity="1" fill-rule="nonzero"/><g fill="#000000" fill-opacity="1"><g transform="translate(113.704684, 244.670842)"><g><path d="M 8.640625 -13.15625 C 7.390625 -13.15625 6.421875 -12.679688 5.734375 -11.734375 C 5.046875 -10.796875 4.703125 -9.488281 4.703125 -7.8125 C 4.703125 -4.3125 6.015625 -2.5625 8.640625 -2.5625 C 9.742188 -2.5625 11.082031 -2.835938 12.65625 -3.390625 L 12.65625 -0.59375 C 11.363281 -0.0507812 9.925781 0.21875 8.34375 0.21875 C 6.050781 0.21875 4.300781 -0.472656 3.09375 -1.859375 C 1.882812 -3.242188 1.28125 -5.234375 1.28125 -7.828125 C 1.28125 -9.460938 1.578125 -10.894531 2.171875 -12.125 C 2.765625 -13.351562 3.617188 -14.296875 4.734375 -14.953125 C 5.847656 -15.609375 7.148438 -15.9375 8.640625 -15.9375 C 10.171875 -15.9375 11.707031 -15.566406 13.25 -14.828125 L 12.171875 -12.125 C 11.585938 -12.394531 10.992188 -12.632812 10.390625 -12.84375 C 9.796875 -13.050781 9.210938 -13.15625 8.640625 -13.15625 Z M 8.640625 -13.15625 "/></g></g></g><g fill="#000000" fill-opacity="1"><g transform="translate(127.720755, 244.670842)"><g><path d="M 10.234375 0 L 9.78125 -1.53125 L 9.609375 -1.53125 C 9.265625 -0.976562 8.769531 -0.546875 8.125 -0.234375 C 7.476562 0.0664062 6.742188 0.21875 5.921875 0.21875 C 4.503906 0.21875 3.4375 -0.15625 2.71875 -0.90625 C 2.007812 -1.664062 1.65625 -2.753906 1.65625 -4.171875 L 1.65625 -12.015625 L 4.9375 -12.015625 L 4.9375 -5 C 4.9375 -4.132812 5.085938 -3.484375 5.390625 -3.046875 C 5.703125 -2.609375 6.191406 -2.390625 6.859375 -2.390625 C 7.773438 -2.390625 8.4375 -2.695312 8.84375 -3.3125 C 9.257812 -3.925781 9.46875 -4.941406 9.46875 -6.359375 L 9.46875 -12.015625 L 12.734375 -12.015625 L 12.734375 0 Z M 10.234375 0 "/></g></g></g><g fill="#000000" fill-opacity="1"><g transform="translate(142.177171, 244.670842)"><g><path d="M 6.78125 -2.390625 C 7.351562 -2.390625 8.039062 -2.515625 8.84375 -2.765625 L 8.84375 -0.328125 C 8.019531 0.0351562 7.015625 0.21875 5.828125 0.21875 C 4.523438 0.21875 3.570312 -0.109375 2.96875 -0.765625 C 2.375 -1.429688 2.078125 -2.429688 2.078125 -3.765625 L 2.078125 -9.546875 L 0.5 -9.546875 L 0.5 -10.9375 L 2.3125 -12.03125 L 3.25 -14.5625 L 5.34375 -14.5625 L 5.34375 -12.015625 L 8.71875 -12.015625 L 8.71875 -9.546875 L 5.34375 -9.546875 L 5.34375 -3.765625 C 5.34375 -3.296875 5.472656 -2.945312 5.734375 -2.71875 C 6.003906 -2.5 6.351562 -2.390625 6.78125 -2.390625 Z M 6.78125 -2.390625 "/></g></g></g><g fill="#000000" fill-opacity="1"><g transform="translate(151.725285, 244.670842)"><g><path d="M 1.578125 -15.109375 C 1.578125 -16.179688 2.171875 -16.71875 3.359375 -16.71875 C 4.546875 -16.71875 5.140625 -16.179688 5.140625 -15.109375 C 5.140625 -14.609375 4.988281 -14.210938 4.6875 -13.921875 C 4.394531 -13.640625 3.953125 -13.5 3.359375 -13.5 C 2.171875 -13.5 1.578125 -14.035156 1.578125 -15.109375 Z M 5 0 L 1.71875 0 L 1.71875 -12.015625 L 5 -12.015625 Z M 5 0 "/></g></g></g><g fill="#000000" fill-opacity="1"><g transform="translate(158.437965, 244.670842)"><g/></g></g><g fill="#000000" fill-opacity="1"><g transform="translate(164.151794, 244.670842)"><g><path d="M 8.03125 0 L 4.703125 0 L 4.703125 -12.9375 L 0.4375 -12.9375 L 0.4375 -15.703125 L 12.296875 -15.703125 L 12.296875 -12.9375 L 8.03125 -12.9375 Z M 8.03125 0 "/></g></g></g><g fill="#000000" fill-opacity="1"><g transform="translate(176.889765, 244.670842)"><g><path d="M 9.34375 0 L 8.71875 -1.640625 L 8.625 -1.640625 C 8.070312 -0.941406 7.503906 -0.457031 6.921875 -0.1875 C 6.335938 0.0820312 5.578125 0.21875 4.640625 0.21875 C 3.484375 0.21875 2.570312 -0.109375 1.90625 -0.765625 C 1.25 -1.429688 0.921875 -2.375 0.921875 -3.59375 C 0.921875 -4.863281 1.363281 -5.800781 2.25 -6.40625 C 3.144531 -7.007812 4.492188 -7.34375 6.296875 -7.40625 L 8.375 -7.484375 L 8.375 -8 C 8.375 -9.21875 7.753906 -9.828125 6.515625 -9.828125 C 5.554688 -9.828125 4.425781 -9.535156 3.125 -8.953125 L 2.046875 -11.171875 C 3.421875 -11.890625 4.953125 -12.25 6.640625 -12.25 C 8.253906 -12.25 9.488281 -11.898438 10.34375 -11.203125 C 11.207031 -10.503906 11.640625 -9.4375 11.640625 -8 L 11.640625 0 Z M 8.375 -5.5625 L 7.109375 -5.515625 C 6.160156 -5.492188 5.453125 -5.320312 4.984375 -5 C 4.515625 -4.6875 4.28125 -4.207031 4.28125 -3.5625 C 4.28125 -2.644531 4.8125 -2.1875 5.875 -2.1875 C 6.632812 -2.1875 7.238281 -2.398438 7.6875 -2.828125 C 8.144531 -3.265625 8.375 -3.847656 8.375 -4.578125 Z M 8.375 -5.5625 "/></g></g></g><g fill="#000000" fill-opacity="1"><g transform="translate(190.175497, 244.670842)"><g><path d="M 12.8125 0 L 9.53125 0 L 9.53125 -7.015625 C 9.53125 -8.742188 8.882812 -9.609375 7.59375 -9.609375 C 6.675781 -9.609375 6.015625 -9.296875 5.609375 -8.671875 C 5.203125 -8.054688 5 -7.050781 5 -5.65625 L 5 0 L 1.71875 0 L 1.71875 -16.71875 L 5 -16.71875 L 5 -13.3125 C 5 -13.039062 4.972656 -12.414062 4.921875 -11.4375 L 4.84375 -10.46875 L 5.015625 -10.46875 C 5.742188 -11.644531 6.90625 -12.234375 8.5 -12.234375 C 9.90625 -12.234375 10.972656 -11.851562 11.703125 -11.09375 C 12.441406 -10.332031 12.8125 -9.242188 12.8125 -7.828125 Z M 12.8125 0 "/></g></g></g><g fill="#000000" fill-opacity="1"><g transform="translate(204.631913, 244.670842)"><g><path d="M 10.234375 0 L 9.78125 -1.53125 L 9.609375 -1.53125 C 9.265625 -0.976562 8.769531 -0.546875 8.125 -0.234375 C 7.476562 0.0664062 6.742188 0.21875 5.921875 0.21875 C 4.503906 0.21875 3.4375 -0.15625 2.71875 -0.90625 C 2.007812 -1.664062 1.65625 -2.753906 1.65625 -4.171875 L 1.65625 -12.015625 L 4.9375 -12.015625 L 4.9375 -5 C 4.9375 -4.132812 5.085938 -3.484375 5.390625 -3.046875 C 5.703125 -2.609375 6.191406 -2.390625 6.859375 -2.390625 C 7.773438 -2.390625 8.4375 -2.695312 8.84375 -3.3125 C 9.257812 -3.925781 9.46875 -4.941406 9.46875 -6.359375 L 9.46875 -12.015625 L 12.734375 -12.015625 L 12.734375 0 Z M 10.234375 0 "/></g></g></g><g fill="#000000" fill-opacity="1"><g transform="translate(219.08833, 244.670842)"><g><path d="M 12.8125 0 L 9.53125 0 L 9.53125 -7.015625 C 9.53125 -7.878906 9.375 -8.523438 9.0625 -8.953125 C 8.757812 -9.390625 8.269531 -9.609375 7.59375 -9.609375 C 6.675781 -9.609375 6.015625 -9.300781 5.609375 -8.6875 C 5.203125 -8.082031 5 -7.070312 5 -5.65625 L 5 0 L 1.71875 0 L 1.71875 -12.015625 L 4.21875 -12.015625 L 4.65625 -10.46875 L 4.84375 -10.46875 C 5.207031 -11.050781 5.707031 -11.488281 6.34375 -11.78125 C 6.988281 -12.082031 7.722656 -12.234375 8.546875 -12.234375 C 9.941406 -12.234375 11 -11.851562 11.71875 -11.09375 C 12.445312 -10.34375 12.8125 -9.253906 12.8125 -7.828125 Z M 12.8125 0 "/></g></g></g><g fill="#000000" fill-opacity="1"><g transform="translate(233.544746, 244.670842)"><g><path d="M 9.34375 0 L 8.71875 -1.640625 L 8.625 -1.640625 C 8.070312 -0.941406 7.503906 -0.457031 6.921875 -0.1875 C 6.335938 0.0820312 5.578125 0.21875 4.640625 0.21875 C 3.484375 0.21875 2.570312 -0.109375 1.90625 -0.765625 C 1.25 -1.429688 0.921875 -2.375 0.921875 -3.59375 C 0.921875 -4.863281 1.363281 -5.800781 2.25 -6.40625 C 3.144531 -7.007812 4.492188 -7.34375 6.296875 -7.40625 L 8.375 -7.484375 L 8.375 -8 C 8.375 -9.21875 7.753906 -9.828125 6.515625 -9.828125 C 5.554688 -9.828125 4.425781 -9.535156 3.125 -8.953125 L 2.046875 -11.171875 C 3.421875 -11.890625 4.953125 -12.25 6.640625 -12.25 C 8.253906 -12.25 9.488281 -11.898438 10.34375 -11.203125 C 11.207031 -10.503906 11.640625 -9.4375 11.640625 -8 L 11.640625 0 Z M 8.375 -5.5625 L 7.109375 -5.515625 C 6.160156 -5.492188 5.453125 -5.320312 4.984375 -5 C 4.515625 -4.6875 4.28125 -4.207031 4.28125 -3.5625 C 4.28125 -2.644531 4.8125 -2.1875 5.875 -2.1875 C 6.632812 -2.1875 7.238281 -2.398438 7.6875 -2.828125 C 8.144531 -3.265625 8.375 -3.847656 8.375 -4.578125 Z M 8.375 -5.5625 "/></g></g></g><g fill="#000000" fill-opacity="1"><g transform="translate(246.830478, 244.670842)"><g><path d="M 12.8125 0 L 9.53125 0 L 9.53125 -7.015625 C 9.53125 -7.878906 9.375 -8.523438 9.0625 -8.953125 C 8.757812 -9.390625 8.269531 -9.609375 7.59375 -9.609375 C 6.675781 -9.609375 6.015625 -9.300781 5.609375 -8.6875 C 5.203125 -8.082031 5 -7.070312 5 -5.65625 L 5 0 L 1.71875 0 L 1.71875 -12.015625 L 4.21875 -12.015625 L 4.65625 -10.46875 L 4.84375 -10.46875 C 5.207031 -11.050781 5.707031 -11.488281 6.34375 -11.78125 C 6.988281 -12.082031 7.722656 -12.234375 8.546875 -12.234375 C 9.941406 -12.234375 11 -11.851562 11.71875 -11.09375 C 12.445312 -10.34375 12.8125 -9.253906 12.8125 -7.828125 Z M 12.8125 0 "/></g></g></g></svg>