<svg xmlns="http://www.w3.org/2000/svg" xmlns:xlink="http://www.w3.org/1999/xlink" width="500" zoomAndPan="magnify" viewBox="0 0 375 374.999991" height="500" preserveAspectRatio="xMidYMid meet" version="1.0"><defs><g/><clipPath id="c7d49a26f4"><path d="M 161 197 L 214 197 L 214 228.601562 L 161 228.601562 Z M 161 197 " clip-rule="nonzero"/></clipPath><clipPath id="405c3c0387"><path d="M 131.183594 188 L 166 188 L 166 220 L 131.183594 220 Z M 131.183594 188 " clip-rule="nonzero"/></clipPath><clipPath id="538633886b"><path d="M 208 188 L 243.683594 188 L 243.683594 220 L 208 220 Z M 208 188 " clip-rule="nonzero"/></clipPath><clipPath id="605bf737b5"><path d="M 161 78.601562 L 214 78.601562 L 214 100 L 161 100 Z M 161 78.601562 " clip-rule="nonzero"/></clipPath></defs><path fill="#000000" d="M 183.425781 154.480469 C 180.171875 154.480469 177.015625 153.84375 174.042969 152.585938 C 171.171875 151.367188 168.59375 149.628906 166.382812 147.414062 C 164.167969 145.199219 162.429688 142.617188 161.214844 139.746094 C 159.957031 136.765625 159.320312 133.605469 159.320312 130.351562 C 159.320312 127.09375 159.960938 123.933594 161.214844 120.957031 C 162.429688 118.082031 164.167969 115.5 166.382812 113.285156 C 168.59375 111.070312 171.171875 109.332031 174.042969 108.117188 C 177.015625 106.855469 180.171875 106.21875 183.425781 106.21875 C 187.519531 106.21875 191.566406 107.265625 195.125 109.246094 L 191.683594 115.445312 C 189.171875 114.046875 186.316406 113.308594 183.425781 113.308594 C 174.039062 113.308594 166.402344 120.953125 166.402344 130.351562 C 166.402344 139.746094 174.039062 147.390625 183.425781 147.390625 C 191.664062 147.390625 198.707031 141.511719 200.171875 133.414062 L 207.140625 134.679688 C 206.148438 140.171875 203.242188 145.1875 198.957031 148.804688 C 196.832031 150.597656 194.433594 152 191.835938 152.96875 C 189.148438 153.972656 186.316406 154.480469 183.425781 154.480469 Z M 183.425781 154.480469 " fill-opacity="1" fill-rule="nonzero"/><path fill="#000000" d="M 187.363281 145.53125 L 167.839844 125.984375 L 178.925781 114.890625 L 187.363281 123.335938 L 205.929688 104.75 L 217.015625 115.847656 Z M 177.855469 125.984375 L 187.363281 135.503906 L 206.996094 115.847656 L 205.929688 114.777344 L 187.363281 133.367188 L 178.921875 124.917969 Z M 177.855469 125.984375 " fill-opacity="1" fill-rule="nonzero"/><g clip-path="url(#c7d49a26f4)"><path fill="#000000" d="M 213.265625 228.566406 L 161.601562 228.566406 L 161.601562 211.484375 C 161.601562 207.671875 163.085938 204.082031 165.78125 201.386719 C 168.476562 198.6875 172.058594 197.203125 175.867188 197.203125 L 199 197.203125 C 202.808594 197.203125 206.394531 198.6875 209.085938 201.386719 C 211.78125 204.085938 213.265625 207.671875 213.265625 211.484375 Z M 168.6875 221.476562 L 206.183594 221.476562 L 206.183594 211.484375 C 206.183594 207.519531 202.960938 204.292969 199 204.292969 L 175.867188 204.292969 C 171.910156 204.292969 168.6875 207.519531 168.6875 211.484375 Z M 168.6875 221.476562 " fill-opacity="1" fill-rule="nonzero"/></g><g clip-path="url(#405c3c0387)"><path fill="#000000" d="M 158.117188 219.898438 L 131.183594 219.898438 L 131.183594 203.0625 C 131.183594 199.183594 132.691406 195.535156 135.433594 192.789062 C 138.175781 190.046875 141.820312 188.535156 145.695312 188.535156 L 165.550781 188.535156 L 165.550781 195.625 L 145.695312 195.625 C 141.597656 195.625 138.265625 198.960938 138.265625 203.0625 L 138.265625 212.808594 L 158.117188 212.808594 Z M 158.117188 219.898438 " fill-opacity="1" fill-rule="nonzero"/></g><g clip-path="url(#538633886b)"><path fill="#000000" d="M 243.683594 219.898438 L 216.640625 219.898438 L 216.640625 212.808594 L 236.601562 212.808594 L 236.601562 203.0625 C 236.601562 198.960938 233.269531 195.625 229.171875 195.625 L 208.9375 195.625 L 208.9375 188.535156 L 229.171875 188.535156 C 233.050781 188.535156 236.695312 190.046875 239.433594 192.789062 C 242.175781 195.535156 243.683594 199.183594 243.683594 203.0625 Z M 243.683594 219.898438 " fill-opacity="1" fill-rule="nonzero"/></g><path fill="#000000" d="M 155.246094 186.425781 C 151.394531 186.425781 147.773438 184.925781 145.050781 182.199219 C 142.324219 179.472656 140.828125 175.847656 140.828125 171.988281 C 140.828125 168.132812 142.324219 164.507812 145.050781 161.78125 C 147.773438 159.054688 151.394531 157.554688 155.246094 157.554688 C 159.097656 157.554688 162.71875 159.054688 165.445312 161.78125 C 168.167969 164.507812 169.667969 168.132812 169.667969 171.988281 C 169.667969 175.847656 168.167969 179.472656 165.445312 182.199219 C 162.71875 184.925781 159.097656 186.425781 155.246094 186.425781 Z M 155.246094 164.644531 C 151.199219 164.644531 147.910156 167.9375 147.910156 171.988281 C 147.910156 176.039062 151.199219 179.335938 155.246094 179.335938 C 159.292969 179.335938 162.585938 176.039062 162.585938 171.988281 C 162.585938 167.9375 159.292969 164.644531 155.246094 164.644531 Z M 155.246094 164.644531 " fill-opacity="1" fill-rule="nonzero"/><path fill="#000000" d="M 219.621094 186.425781 C 215.769531 186.425781 212.148438 184.925781 209.425781 182.199219 C 206.703125 179.472656 205.203125 175.847656 205.203125 171.988281 C 205.203125 168.132812 206.703125 164.507812 209.425781 161.78125 C 212.148438 159.054688 215.769531 157.554688 219.621094 157.554688 C 223.472656 157.554688 227.097656 159.054688 229.820312 161.78125 C 232.542969 164.507812 234.042969 168.132812 234.042969 171.988281 C 234.042969 175.847656 232.542969 179.472656 229.820312 182.199219 C 227.097656 184.925781 223.472656 186.425781 219.621094 186.425781 Z M 219.621094 164.644531 C 215.578125 164.644531 212.285156 167.9375 212.285156 171.988281 C 212.285156 176.039062 215.578125 179.335938 219.621094 179.335938 C 223.667969 179.335938 226.960938 176.039062 226.960938 171.988281 C 226.960938 167.9375 223.667969 164.644531 219.621094 164.644531 Z M 219.621094 164.644531 " fill-opacity="1" fill-rule="nonzero"/><path fill="#000000" d="M 187.433594 194.25 C 185 194.25 182.640625 193.773438 180.414062 192.832031 C 178.265625 191.921875 176.339844 190.621094 174.683594 188.964844 C 173.03125 187.308594 171.730469 185.378906 170.824219 183.226562 C 169.882812 181 169.402344 178.636719 169.402344 176.203125 C 169.402344 173.765625 169.882812 171.402344 170.824219 169.171875 C 171.730469 167.023438 173.03125 165.09375 174.683594 163.4375 C 176.339844 161.78125 178.269531 160.480469 180.414062 159.570312 C 182.640625 158.628906 185 158.148438 187.433594 158.148438 C 189.867188 158.148438 192.226562 158.628906 194.453125 159.570312 C 196.601562 160.480469 198.527344 161.78125 200.183594 163.4375 C 201.839844 165.09375 203.136719 167.023438 204.046875 169.171875 C 204.988281 171.402344 205.464844 173.765625 205.464844 176.203125 C 205.464844 178.636719 204.988281 181 204.046875 183.226562 C 203.136719 185.378906 201.839844 187.308594 200.183594 188.964844 C 198.527344 190.621094 196.601562 191.921875 194.453125 192.832031 C 192.230469 193.773438 189.867188 194.25 187.433594 194.25 Z M 187.433594 165.242188 C 181.398438 165.242188 176.488281 170.15625 176.488281 176.203125 C 176.488281 182.246094 181.398438 187.160156 187.433594 187.160156 C 193.472656 187.160156 198.382812 182.246094 198.382812 176.203125 C 198.382812 170.15625 193.472656 165.242188 187.433594 165.242188 Z M 187.433594 165.242188 " fill-opacity="1" fill-rule="nonzero"/><path fill="#000000" d="M 149.796875 154.753906 L 142.714844 154.753906 L 142.714844 85.578125 L 160.183594 85.578125 L 160.183594 92.667969 L 149.796875 92.667969 Z M 149.796875 154.753906 " fill-opacity="1" fill-rule="nonzero"/><path fill="#000000" d="M 232.15625 154.753906 L 225.074219 154.753906 L 225.074219 92.667969 L 214.714844 92.667969 L 214.714844 85.578125 L 232.15625 85.578125 Z M 232.15625 154.753906 " fill-opacity="1" fill-rule="nonzero"/><g clip-path="url(#605bf737b5)"><path fill="#000000" d="M 213.089844 99.613281 L 161.777344 99.613281 L 161.777344 78.632812 L 213.089844 78.632812 Z M 168.859375 92.523438 L 206.007812 92.523438 L 206.007812 85.722656 L 168.859375 85.722656 Z M 168.859375 92.523438 " fill-opacity="1" fill-rule="nonzero"/></g><g fill="#000000" fill-opacity="1"><g transform="translate(118.837497, 268.927482)"><g><path d="M 8.640625 -13.15625 C 7.390625 -13.15625 6.421875 -12.679688 5.734375 -11.734375 C 5.046875 -10.796875 4.703125 -9.488281 4.703125 -7.8125 C 4.703125 -4.3125 6.015625 -2.5625 8.640625 -2.5625 C 9.742188 -2.5625 11.082031 -2.835938 12.65625 -3.390625 L 12.65625 -0.59375 C 11.363281 -0.0507812 9.925781 0.21875 8.34375 0.21875 C 6.050781 0.21875 4.300781 -0.472656 3.09375 -1.859375 C 1.882812 -3.242188 1.28125 -5.234375 1.28125 -7.828125 C 1.28125 -9.460938 1.578125 -10.894531 2.171875 -12.125 C 2.765625 -13.351562 3.617188 -14.296875 4.734375 -14.953125 C 5.847656 -15.609375 7.148438 -15.9375 8.640625 -15.9375 C 10.171875 -15.9375 11.707031 -15.566406 13.25 -14.828125 L 12.171875 -12.125 C 11.585938 -12.394531 10.992188 -12.632812 10.390625 -12.84375 C 9.796875 -13.050781 9.210938 -13.15625 8.640625 -13.15625 Z M 8.640625 -13.15625 "/></g></g></g><g fill="#000000" fill-opacity="1"><g transform="translate(132.853567, 268.927482)"><g><path d="M 10.234375 0 L 9.78125 -1.53125 L 9.609375 -1.53125 C 9.265625 -0.976562 8.769531 -0.546875 8.125 -0.234375 C 7.476562 0.0664062 6.742188 0.21875 5.921875 0.21875 C 4.503906 0.21875 3.4375 -0.15625 2.71875 -0.90625 C 2.007812 -1.664062 1.65625 -2.753906 1.65625 -4.171875 L 1.65625 -12.015625 L 4.9375 -12.015625 L 4.9375 -5 C 4.9375 -4.132812 5.085938 -3.484375 5.390625 -3.046875 C 5.703125 -2.609375 6.191406 -2.390625 6.859375 -2.390625 C 7.773438 -2.390625 8.4375 -2.695312 8.84375 -3.3125 C 9.257812 -3.925781 9.46875 -4.941406 9.46875 -6.359375 L 9.46875 -12.015625 L 12.734375 -12.015625 L 12.734375 0 Z M 10.234375 0 "/></g></g></g><g fill="#000000" fill-opacity="1"><g transform="translate(147.309983, 268.927482)"><g><path d="M 6.78125 -2.390625 C 7.351562 -2.390625 8.039062 -2.515625 8.84375 -2.765625 L 8.84375 -0.328125 C 8.019531 0.0351562 7.015625 0.21875 5.828125 0.21875 C 4.523438 0.21875 3.570312 -0.109375 2.96875 -0.765625 C 2.375 -1.429688 2.078125 -2.429688 2.078125 -3.765625 L 2.078125 -9.546875 L 0.5 -9.546875 L 0.5 -10.9375 L 2.3125 -12.03125 L 3.25 -14.5625 L 5.34375 -14.5625 L 5.34375 -12.015625 L 8.71875 -12.015625 L 8.71875 -9.546875 L 5.34375 -9.546875 L 5.34375 -3.765625 C 5.34375 -3.296875 5.472656 -2.945312 5.734375 -2.71875 C 6.003906 -2.5 6.351562 -2.390625 6.78125 -2.390625 Z M 6.78125 -2.390625 "/></g></g></g><g fill="#000000" fill-opacity="1"><g transform="translate(156.858097, 268.927482)"><g><path d="M 1.578125 -15.109375 C 1.578125 -16.179688 2.171875 -16.71875 3.359375 -16.71875 C 4.546875 -16.71875 5.140625 -16.179688 5.140625 -15.109375 C 5.140625 -14.609375 4.988281 -14.210938 4.6875 -13.921875 C 4.394531 -13.640625 3.953125 -13.5 3.359375 -13.5 C 2.171875 -13.5 1.578125 -14.035156 1.578125 -15.109375 Z M 5 0 L 1.71875 0 L 1.71875 -12.015625 L 5 -12.015625 Z M 5 0 "/></g></g></g><g fill="#000000" fill-opacity="1"><g transform="translate(163.570778, 268.927482)"><g/></g></g><g fill="#000000" fill-opacity="1"><g transform="translate(169.284607, 268.927482)"><g><path d="M 1.984375 -15.703125 L 6.859375 -15.703125 C 9.085938 -15.703125 10.703125 -15.382812 11.703125 -14.75 C 12.710938 -14.113281 13.21875 -13.109375 13.21875 -11.734375 C 13.21875 -10.796875 13 -10.023438 12.5625 -9.421875 C 12.125 -8.816406 11.539062 -8.457031 10.8125 -8.34375 L 10.8125 -8.234375 C 11.800781 -8.003906 12.515625 -7.582031 12.953125 -6.96875 C 13.398438 -6.363281 13.625 -5.5625 13.625 -4.5625 C 13.625 -3.125 13.101562 -2.003906 12.0625 -1.203125 C 11.03125 -0.398438 9.628906 0 7.859375 0 L 1.984375 0 Z M 5.3125 -9.484375 L 7.234375 -9.484375 C 8.140625 -9.484375 8.796875 -9.625 9.203125 -9.90625 C 9.609375 -10.1875 9.8125 -10.648438 9.8125 -11.296875 C 9.8125 -11.890625 9.585938 -12.316406 9.140625 -12.578125 C 8.703125 -12.847656 8.007812 -12.984375 7.0625 -12.984375 L 5.3125 -12.984375 Z M 5.3125 -6.84375 L 5.3125 -2.75 L 7.484375 -2.75 C 8.398438 -2.75 9.070312 -2.921875 9.5 -3.265625 C 9.9375 -3.617188 10.15625 -4.160156 10.15625 -4.890625 C 10.15625 -6.191406 9.226562 -6.84375 7.375 -6.84375 Z M 5.3125 -6.84375 "/></g></g></g><g fill="#000000" fill-opacity="1"><g transform="translate(184.063231, 268.927482)"><g><path d="M 6.6875 -9.90625 C 6 -9.90625 5.457031 -9.679688 5.0625 -9.234375 C 4.664062 -8.796875 4.441406 -8.175781 4.390625 -7.375 L 8.984375 -7.375 C 8.960938 -8.175781 8.75 -8.796875 8.34375 -9.234375 C 7.9375 -9.679688 7.382812 -9.90625 6.6875 -9.90625 Z M 7.15625 0.21875 C 5.21875 0.21875 3.703125 -0.3125 2.609375 -1.375 C 1.523438 -2.445312 0.984375 -3.960938 0.984375 -5.921875 C 0.984375 -7.929688 1.484375 -9.484375 2.484375 -10.578125 C 3.492188 -11.679688 4.890625 -12.234375 6.671875 -12.234375 C 8.367188 -12.234375 9.6875 -11.75 10.625 -10.78125 C 11.570312 -9.8125 12.046875 -8.476562 12.046875 -6.78125 L 12.046875 -5.1875 L 4.3125 -5.1875 C 4.34375 -4.257812 4.613281 -3.53125 5.125 -3 C 5.644531 -2.476562 6.375 -2.21875 7.3125 -2.21875 C 8.03125 -2.21875 8.710938 -2.289062 9.359375 -2.4375 C 10.003906 -2.59375 10.675781 -2.835938 11.375 -3.171875 L 11.375 -0.640625 C 10.800781 -0.347656 10.1875 -0.132812 9.53125 0 C 8.882812 0.144531 8.09375 0.21875 7.15625 0.21875 Z M 7.15625 0.21875 "/></g></g></g><g fill="#000000" fill-opacity="1"><g transform="translate(197.058969, 268.927482)"><g><path d="M 10.09375 -3.5625 C 10.09375 -2.332031 9.664062 -1.394531 8.8125 -0.75 C 7.957031 -0.101562 6.675781 0.21875 4.96875 0.21875 C 4.09375 0.21875 3.347656 0.15625 2.734375 0.03125 C 2.117188 -0.0820312 1.546875 -0.253906 1.015625 -0.484375 L 1.015625 -3.1875 C 1.617188 -2.90625 2.300781 -2.664062 3.0625 -2.46875 C 3.832031 -2.28125 4.503906 -2.1875 5.078125 -2.1875 C 6.265625 -2.1875 6.859375 -2.53125 6.859375 -3.21875 C 6.859375 -3.46875 6.78125 -3.671875 6.625 -3.828125 C 6.46875 -3.992188 6.195312 -4.175781 5.8125 -4.375 C 5.425781 -4.582031 4.910156 -4.828125 4.265625 -5.109375 C 3.335938 -5.492188 2.65625 -5.847656 2.21875 -6.171875 C 1.789062 -6.503906 1.476562 -6.882812 1.28125 -7.3125 C 1.082031 -7.738281 0.984375 -8.265625 0.984375 -8.890625 C 0.984375 -9.953125 1.394531 -10.773438 2.21875 -11.359375 C 3.050781 -11.941406 4.226562 -12.234375 5.75 -12.234375 C 7.195312 -12.234375 8.601562 -11.921875 9.96875 -11.296875 L 8.984375 -8.921875 C 8.378906 -9.179688 7.816406 -9.394531 7.296875 -9.5625 C 6.773438 -9.726562 6.238281 -9.8125 5.6875 -9.8125 C 4.726562 -9.8125 4.25 -9.550781 4.25 -9.03125 C 4.25 -8.726562 4.398438 -8.46875 4.703125 -8.25 C 5.015625 -8.039062 5.695312 -7.726562 6.75 -7.3125 C 7.695312 -6.925781 8.382812 -6.566406 8.8125 -6.234375 C 9.25 -5.910156 9.570312 -5.53125 9.78125 -5.09375 C 9.988281 -4.664062 10.09375 -4.15625 10.09375 -3.5625 Z M 10.09375 -3.5625 "/></g></g></g><g fill="#000000" fill-opacity="1"><g transform="translate(207.992574, 268.927482)"><g><path d="M 9.34375 0 L 8.71875 -1.640625 L 8.625 -1.640625 C 8.070312 -0.941406 7.503906 -0.457031 6.921875 -0.1875 C 6.335938 0.0820312 5.578125 0.21875 4.640625 0.21875 C 3.484375 0.21875 2.570312 -0.109375 1.90625 -0.765625 C 1.25 -1.429688 0.921875 -2.375 0.921875 -3.59375 C 0.921875 -4.863281 1.363281 -5.800781 2.25 -6.40625 C 3.144531 -7.007812 4.492188 -7.34375 6.296875 -7.40625 L 8.375 -7.484375 L 8.375 -8 C 8.375 -9.21875 7.753906 -9.828125 6.515625 -9.828125 C 5.554688 -9.828125 4.425781 -9.535156 3.125 -8.953125 L 2.046875 -11.171875 C 3.421875 -11.890625 4.953125 -12.25 6.640625 -12.25 C 8.253906 -12.25 9.488281 -11.898438 10.34375 -11.203125 C 11.207031 -10.503906 11.640625 -9.4375 11.640625 -8 L 11.640625 0 Z M 8.375 -5.5625 L 7.109375 -5.515625 C 6.160156 -5.492188 5.453125 -5.320312 4.984375 -5 C 4.515625 -4.6875 4.28125 -4.207031 4.28125 -3.5625 C 4.28125 -2.644531 4.8125 -2.1875 5.875 -2.1875 C 6.632812 -2.1875 7.238281 -2.398438 7.6875 -2.828125 C 8.144531 -3.265625 8.375 -3.847656 8.375 -4.578125 Z M 8.375 -5.5625 "/></g></g></g><g fill="#000000" fill-opacity="1"><g transform="translate(221.278305, 268.927482)"><g><path d="M 12.46875 0 L 9.203125 0 L 9.203125 -7.015625 C 9.203125 -7.878906 9.054688 -8.523438 8.765625 -8.953125 C 8.472656 -9.390625 8.015625 -9.609375 7.390625 -9.609375 C 6.554688 -9.609375 5.945312 -9.300781 5.5625 -8.6875 C 5.1875 -8.070312 5 -7.0625 5 -5.65625 L 5 0 L 1.71875 0 L 1.71875 -12.015625 L 4.21875 -12.015625 L 4.65625 -10.46875 L 4.84375 -10.46875 C 5.164062 -11.019531 5.628906 -11.453125 6.234375 -11.765625 C 6.847656 -12.078125 7.550781 -12.234375 8.34375 -12.234375 C 10.132812 -12.234375 11.347656 -11.644531 11.984375 -10.46875 L 12.28125 -10.46875 C 12.601562 -11.03125 13.078125 -11.460938 13.703125 -11.765625 C 14.328125 -12.078125 15.035156 -12.234375 15.828125 -12.234375 C 17.179688 -12.234375 18.207031 -11.882812 18.90625 -11.1875 C 19.601562 -10.488281 19.953125 -9.367188 19.953125 -7.828125 L 19.953125 0 L 16.671875 0 L 16.671875 -7.015625 C 16.671875 -7.878906 16.523438 -8.523438 16.234375 -8.953125 C 15.941406 -9.390625 15.488281 -9.609375 14.875 -9.609375 C 14.070312 -9.609375 13.46875 -9.320312 13.0625 -8.75 C 12.664062 -8.175781 12.46875 -7.269531 12.46875 -6.03125 Z M 12.46875 0 "/></g></g></g><g fill="#000000" fill-opacity="1"><g transform="translate(242.877013, 268.927482)"><g><path d="M 9.34375 0 L 8.71875 -1.640625 L 8.625 -1.640625 C 8.070312 -0.941406 7.503906 -0.457031 6.921875 -0.1875 C 6.335938 0.0820312 5.578125 0.21875 4.640625 0.21875 C 3.484375 0.21875 2.570312 -0.109375 1.90625 -0.765625 C 1.25 -1.429688 0.921875 -2.375 0.921875 -3.59375 C 0.921875 -4.863281 1.363281 -5.800781 2.25 -6.40625 C 3.144531 -7.007812 4.492188 -7.34375 6.296875 -7.40625 L 8.375 -7.484375 L 8.375 -8 C 8.375 -9.21875 7.753906 -9.828125 6.515625 -9.828125 C 5.554688 -9.828125 4.425781 -9.535156 3.125 -8.953125 L 2.046875 -11.171875 C 3.421875 -11.890625 4.953125 -12.25 6.640625 -12.25 C 8.253906 -12.25 9.488281 -11.898438 10.34375 -11.203125 C 11.207031 -10.503906 11.640625 -9.4375 11.640625 -8 L 11.640625 0 Z M 8.375 -5.5625 L 7.109375 -5.515625 C 6.160156 -5.492188 5.453125 -5.320312 4.984375 -5 C 4.515625 -4.6875 4.28125 -4.207031 4.28125 -3.5625 C 4.28125 -2.644531 4.8125 -2.1875 5.875 -2.1875 C 6.632812 -2.1875 7.238281 -2.398438 7.6875 -2.828125 C 8.144531 -3.265625 8.375 -3.847656 8.375 -4.578125 Z M 8.375 -5.5625 "/></g></g></g></svg>